<?xml version="1.0" encoding="UTF-8" standalone="no"?>
<!-- Created with Inkscape (http://www.inkscape.org/) -->

<svg
   version="1.1"
   id="svg1"
   width="880"
   height="660"
   viewBox="0 0 880.00001 659.99998"
   sodipodi:docname="screenshot.svg"
   inkscape:version="1.3.2 (1:1.3.2+202311252150+091e20ef0f)"
   xml:space="preserve"
   inkscape:export-filename="screenshot.png"
   inkscape:export-xdpi="96"
   inkscape:export-ydpi="96"
   xmlns:inkscape="http://www.inkscape.org/namespaces/inkscape"
   xmlns:sodipodi="http://sodipodi.sourceforge.net/DTD/sodipodi-0.dtd"
   xmlns="http://www.w3.org/2000/svg"
   xmlns:svg="http://www.w3.org/2000/svg"><defs
     id="defs1"><clipPath
       clipPathUnits="userSpaceOnUse"
       id="clipPath5"><path
         d="M 0,1000 H 1000 V 0 H 0 Z"
         transform="translate(-499.99991,-833.33332)"
         id="path5-7" /></clipPath><clipPath
       clipPathUnits="userSpaceOnUse"
       id="clipPath7"><path
         d="M 0,1000 H 1000 V 0 H 0 Z"
         transform="translate(-743.75922,-633.26762)"
         id="path7" /></clipPath></defs><sodipodi:namedview
     id="namedview1"
     pagecolor="#ffffff"
     bordercolor="#111111"
     borderopacity="1"
     inkscape:showpageshadow="0"
     inkscape:pageopacity="0"
     inkscape:pagecheckerboard="1"
     inkscape:deskcolor="#d1d1d1"
     inkscape:zoom="1.175"
     inkscape:cx="440"
     inkscape:cy="330.21277"
     inkscape:window-width="1920"
     inkscape:window-height="1020"
     inkscape:window-x="0"
     inkscape:window-y="0"
     inkscape:window-maximized="1"
     inkscape:current-layer="g1" /><g
     id="g1"
     inkscape:groupmode="layer"
     inkscape:label="1"
     transform="translate(-12.817733,-248.43068)"><g
       id="g12"
       inkscape:label="puzzle"><path
         id="path11"
         d="m 670.71016,904.13206 5e-5,-76.74728 0.13556,-4.23348 c -0.043,-3.71666 -3.80239,-3.8283 -8.30176,-4.03822 -6.05785,6.42495 -14.59398,10.41908 -24.08526,10.41908 -18.33719,0 -33.19797,-14.81691 -33.19797,-33.09539 0,-18.32143 14.86078,-33.13834 33.19797,-33.13834 9.49128,0 18.02741,3.98554 24.08536,10.4019 4.5004,-0.18897 7.994,-3.80515 7.994,-8.26311 v 0 l 0.1721,-77.76085 v 0 l 77.85771,-1.03073 v -0.12885 c 4.49179,0 8.11448,-3.54747 8.26076,-7.95388 -6.39349,-6.02984 -10.38619,-14.60217 -10.38619,-24.09358 0,-18.28707 14.81775,-33.11257 33.18936,-33.11257 18.31137,0 33.18936,14.8255 33.18936,33.11257 0,9.49141 -3.9927,18.06374 -10.43782,24.09358 0.13768,4.40641 3.8206,7.95388 8.321,7.95388 v 0.12885 h 77.81473 v -216.4471 h -81.37719 c -2.73638,1.28842 -4.64668,3.91682 -4.75854,7.06058 6.44512,6.07278 10.43782,14.62793 10.43782,24.11075 0,18.29566 -14.87799,33.11257 -33.18936,33.11257 -18.37161,0 -33.18936,-14.81691 -33.18936,-33.11257 0,-9.48282 3.9927,-18.03797 10.38619,-24.11075 -0.0861,-3.14376 -2.05658,-5.77216 -4.75854,-7.06058 h -81.35998 v 0 -78.77441 h -0.1721 c 0,-4.45796 -3.49361,-8.07414 -7.99401,-8.26311 -6.0579,6.41636 -14.59403,10.4019 -24.08531,10.4019 -18.33719,0 -33.19797,-14.81691 -33.19797,-33.13834 0,-18.27848 14.86078,-33.09539 33.19797,-33.09539 9.49128,0 18.02741,3.99413 24.08531,10.41908 4.5004,-0.18897 7.99401,-3.82233 7.99401,-8.2717 h 0.1721 V 252.72929 H 17.116361 v 651.40277 z"
         style="display:inline;fill:#00759b;fill-opacity:1;stroke:#1e130f;stroke-width:8.59724;stroke-linecap:butt;stroke-linejoin:miter;stroke-miterlimit:4;stroke-dasharray:none;stroke-opacity:1"
         sodipodi:nodetypes="ccccsssccccccccssscccccccssscccccccssscccccccc"
         inkscape:label="puzzle-main" /><path
         id="path423"
         d="m 638.45874,393.56292 c 9.49128,0 18.02741,-3.98554 24.08531,-10.4019 4.5004,0.18897 7.99401,3.80515 7.99401,8.26311 h 0.1721 v 77.76085 h 77.85776 v 0.13743 c 4.49179,0 8.11448,3.54747 8.26076,7.93671 -6.39349,6.07278 -10.38619,14.62793 -10.38619,24.11075 0,18.29566 14.81775,33.11257 33.18936,33.11257 18.31137,0 33.18936,-14.81691 33.18936,-33.11257 0,-9.48282 -3.9927,-18.03797 -10.43782,-24.11075 0.13768,-4.38924 3.8206,-7.93671 8.321,-7.93671 v -0.13743 h 77.81473 V 252.72929 H 670.71016 v 76.74728 h -0.1721 c 0,4.44937 -3.49361,8.08273 -7.99401,8.2717 -6.0579,-6.42495 -14.59403,-10.41908 -24.08531,-10.41908 -18.33719,0 -33.19797,14.81691 -33.19797,33.09539 0,18.32143 14.86078,33.13834 33.19797,33.13834 z"
         style="display:inline;fill:#ffffff;fill-opacity:1;stroke:#1e130f;stroke-width:8.59724;stroke-linecap:butt;stroke-linejoin:miter;stroke-miterlimit:4;stroke-dasharray:none;stroke-opacity:1"
         inkscape:label="puzzle-top-right" /><path
         id="path5"
         d="m 638.45875,763.29843 c 9.49128,0 18.02741,3.98554 24.08536,10.4019 4.5004,-0.18897 7.994,-3.80515 7.994,-8.26311 h 0.1721 v -77.76085 h 77.8577 v -0.13743 c 4.4918,0 8.1145,-3.54747 8.2608,-7.93671 -6.3935,-6.07278 -10.3862,-14.62793 -10.3862,-24.11075 0,-18.29566 14.8177,-33.11257 33.1894,-33.11257 18.3113,0 33.1893,14.81691 33.1893,33.11257 0,9.48282 -3.9927,18.03797 -10.4378,24.11075 0.1377,4.38924 3.8206,7.93671 8.321,7.93671 v 0.13743 h 77.8147 v 216.45569 h -217.8089 v -76.74728 h -0.1721 c 0,-4.44937 -3.4936,-8.08273 -7.9941,-8.2717 -6.05785,6.42495 -14.59398,10.41908 -24.08526,10.41908 -18.33719,0 -33.19797,-14.81691 -33.19797,-33.09539 0,-18.32143 14.86078,-33.13834 33.19797,-33.13834 z"
         style="display:inline;fill:#ffffff;fill-opacity:1;stroke:#1e130f;stroke-width:8.59724;stroke-linecap:butt;stroke-linejoin:miter;stroke-miterlimit:4;stroke-dasharray:none;stroke-opacity:1"
         sodipodi:nodetypes="scccccccssscccccccccsss"
         inkscape:label="puzzle-bottom-right" /></g><g
       id="g11"
       inkscape:label="wordpress"
       style="display:inline"
       transform="matrix(0.6,0,0,0.60000077,137.56575,231.37227)"><path
         id="path4-9"
         d="m 0,0 c -184.095,0 -333.333,-149.238 -333.333,-333.333 0,-184.095 149.238,-333.334 333.333,-333.334 184.095,0 333.333,149.239 333.333,333.334 C 333.333,-149.238 184.095,0 0,0 m 0,-20 c 42.309,0 83.341,-8.282 121.957,-24.615 18.562,-7.851 36.467,-17.57 53.217,-28.885 16.596,-11.212 32.202,-24.089 46.386,-38.273 14.184,-14.184 27.061,-29.791 38.273,-46.386 11.316,-16.75 21.034,-34.655 28.885,-53.217 16.334,-38.616 24.615,-79.649 24.615,-121.957 0,-42.309 -8.281,-83.341 -24.615,-121.957 -7.851,-18.562 -17.569,-36.467 -28.885,-53.217 -11.212,-16.596 -24.089,-32.202 -38.273,-46.386 -14.184,-14.184 -29.79,-27.061 -46.386,-38.273 -16.75,-11.316 -34.655,-21.034 -53.217,-28.885 C 83.341,-638.385 42.309,-646.667 0,-646.667 c -42.308,0 -83.341,8.282 -121.957,24.616 -18.562,7.851 -36.467,17.569 -53.217,28.885 -16.595,11.212 -32.202,24.089 -46.386,38.273 -14.184,14.184 -27.061,29.79 -38.273,46.386 -11.315,16.75 -21.034,34.655 -28.885,53.217 -16.333,38.616 -24.615,79.648 -24.615,121.957 0,42.308 8.282,83.341 24.615,121.957 7.851,18.562 17.57,36.467 28.885,53.217 11.212,16.595 24.089,32.202 38.273,46.386 14.184,14.184 29.791,27.061 46.386,38.273 16.75,11.315 34.655,21.034 53.217,28.885 C -83.341,-28.282 -42.308,-20 0,-20"
         style="display:inline;fill:#ffffff;fill-opacity:1;fill-rule:nonzero;stroke:none"
         transform="matrix(0.9000009,0,0,-0.9000009,343.9133,278.43033)"
         clip-path="url(#clipPath5)" /><path
         id="path6"
         d="m 0,0 c 1.193,-8.846 1.867,-18.337 1.867,-28.561 0,-28.177 -5.279,-59.864 -21.129,-99.49 l -84.839,-245.297 c 82.583,48.146 138.12,137.615 138.12,240.091 C 34.019,-84.963 21.677,-39.561 0,0 m -238.879,-157.554 -83.356,-242.173 c 24.894,-7.324 51.212,-11.318 78.476,-11.318 32.347,0 63.379,5.583 92.249,15.749 -0.743,1.188 -1.428,2.45 -1.993,3.828 z m 182.643,38.306 c 0,34.34 -12.335,58.108 -22.899,76.605 -14.082,22.892 -27.287,42.259 -27.287,65.15 0,25.53 19.361,49.298 46.647,49.298 1.233,0 2.4,-0.148 3.597,-0.224 -49.421,45.282 -115.265,72.929 -187.581,72.929 -97.049,0 -182.421,-49.795 -232.091,-125.197 6.522,-0.207 12.667,-0.337 17.877,-0.337 29.048,0 74.035,3.531 74.035,3.531 14.966,0.877 16.735,-21.122 1.776,-22.891 0,0 -15.053,-1.763 -31.789,-2.639 l 101.15,-300.884 60.797,182.31 -43.275,118.574 c -14.966,0.876 -29.134,2.639 -29.134,2.639 -14.974,0.884 -13.22,23.768 1.762,22.891 0,0 45.863,-3.531 73.156,-3.531 29.048,0 74.042,3.531 74.042,3.531 14.974,0.877 16.736,-21.122 1.77,-22.891 0,0 -15.068,-1.763 -31.79,-2.639 l 100.386,-298.592 28.656,90.801 c 12.731,39.683 20.195,67.798 20.195,91.566 m -465.301,-14.009 c 0,-109.945 63.89,-204.968 156.56,-249.989 l -132.507,363.034 c -15.413,-34.543 -24.053,-72.773 -24.053,-113.045"
         style="display:inline;fill:#ffffff;fill-opacity:1;fill-rule:nonzero;stroke:none"
         transform="matrix(0.9000009,0,0,-0.9000009,563.29689,458.48964)"
         clip-path="url(#clipPath7)" /></g><g
       id="g4"
       style="display:inline"
       inkscape:label="bulma"
       transform="translate(-1.1409037e-5,434.9471)"><path
         fill-rule="evenodd"
         clip-rule="evenodd"
         d="m 700.7105,368.49576 2.51288,-17.59012 10.05152,-10.0515 12.56437,12.56437 -7.53862,7.53863 10.0515,10.0515 -15.07725,10.0515 z"
         fill="#00d1b2"
         id="path3"
         style="stroke-width:1.00515" /><path
         fill-rule="evenodd"
         clip-rule="evenodd"
         d="m 743.05498,374.16752 v -26.38015 c 0,-0.51407 0.22998,-0.91992 0.68993,-1.21753 0.45996,-0.29763 1.00113,-0.44644 1.62342,-0.44644 h 7.83283 c 5.43837,0 8.1575,2.38095 8.1575,7.14294 0,3.30091 -1.14989,5.45183 -3.44968,6.45296 1.37987,0.54117 2.42161,1.30549 3.12502,2.29305 0.7035,0.98756 1.0552,2.42834 1.0552,4.32224 v 0.85227 c 0,3.00329 -0.73044,5.18808 -2.19153,6.55448 -1.46108,1.3664 -3.4362,2.0495 -5.92536,2.0495 h -8.60398 c -0.67647,0 -1.23111,-0.16233 -1.66403,-0.48699 -0.43291,-0.32467 -0.64932,-0.70341 -0.64932,-1.13633 z m 5.23542,-3.00328 h 4.5861 c 2.62445,0 3.93667,-1.47456 3.93667,-4.42377 v -0.64933 c 0,-1.51516 -0.3314,-2.61097 -0.9943,-3.28744 -0.66289,-0.67636 -1.64372,-1.0146 -2.94237,-1.0146 h -4.5861 z m 0,-13.51475 h 4.54549 c 1.05521,0 1.86013,-0.31119 2.41477,-0.93348 0.55465,-0.62229 0.83207,-1.47455 0.83207,-2.5568 0,-1.05521 -0.29089,-1.88717 -0.87257,-2.49599 -0.58178,-0.60882 -1.38671,-0.91316 -2.41488,-0.91316 h -4.50488 z m 17.45142,9.09098 V 347.7468 c 0,-0.54115 0.25711,-0.94699 0.77115,-1.21755 0.51403,-0.27057 1.13642,-0.40585 1.86686,-0.40585 0.73055,0 1.35283,0.13528 1.86697,0.40585 0.51403,0.27056 0.77105,0.6764 0.77105,1.21755 v 18.99367 c 0,3.11154 1.48812,4.66721 4.46437,4.66721 2.97625,0 4.46428,-1.55567 4.46428,-4.66721 V 347.7468 c 0,-0.54115 0.25711,-0.94699 0.77115,-1.21755 0.51403,-0.27057 1.13632,-0.40585 1.86686,-0.40585 0.73054,0 1.35283,0.13528 1.86697,0.40585 0.51403,0.27056 0.77105,0.6764 0.77105,1.21755 v 18.99367 c 0,3.19266 -0.88604,5.53979 -2.65832,7.04148 -1.77218,1.50159 -4.13278,2.25244 -7.08199,2.25244 -2.94921,0 -5.3098,-0.74401 -7.08208,-2.23214 -1.77218,-1.48812 -2.65832,-3.84208 -2.65832,-7.06178 z m 24.22914,7.38645 V 347.7468 c 0,-0.54115 0.25701,-0.94699 0.77115,-1.21755 0.51403,-0.27057 1.13632,-0.40585 1.86686,-0.40585 0.73055,0 1.35283,0.13528 1.86687,0.40585 0.51413,0.27056 0.77115,0.6764 0.77115,1.21755 v 23.41744 h 9.90244 c 0.48749,0 0.87247,0.22998 1.15692,0.68993 0.28446,0.45996 0.42619,1.00103 0.42619,1.62342 0,0.62229 -0.14173,1.16336 -0.42619,1.62332 -0.28445,0.45995 -0.66943,0.68993 -1.15692,0.68993 h -12.86512 c -0.62229,0 -1.16346,-0.14876 -1.62342,-0.44638 -0.45995,-0.29763 -0.68993,-0.70351 -0.68993,-1.21754 z m 19.64334,0 v -25.36551 c 0,-0.89287 0.25028,-1.55575 0.75085,-1.98866 0.50056,-0.4329 1.12979,-0.64935 1.88667,-0.64935 1.00112,0 1.77207,0.17587 2.31385,0.5276 0.54077,0.35173 1.13582,1.10931 1.78515,2.27275 l 4.99258,9.09101 4.99157,-9.09101 c 0.64933,-1.16344 1.25141,-1.92102 1.80626,-2.27275 0.55484,-0.35173 1.33182,-0.5276 2.33295,-0.5276 0.75788,0 1.38711,0.21645 1.88767,0.64935 0.50057,0.43291 0.75085,1.09579 0.75085,1.98866 v 25.36551 c 0,0.51403 -0.26436,0.91991 -0.79105,1.21754 -0.52771,0.29762 -1.14387,0.44638 -1.84747,0.44638 -0.72974,0 -1.35193,-0.14876 -1.86656,-0.44638 -0.51364,-0.29763 -0.77095,-0.70351 -0.77095,-1.21754 V 356.6754 l -4.74833,8.44165 c -0.37894,0.70351 -0.97399,1.05521 -1.78615,1.05521 -0.78402,0 -1.366,-0.3517 -1.74494,-1.05521 l -4.66692,-8.76631 v 17.77618 c 0,0.51403 -0.26435,0.91991 -0.79205,1.21754 -0.52771,0.29762 -1.14286,0.44638 -1.84646,0.44638 -0.73075,0 -1.35294,-0.14876 -1.86657,-0.44638 -0.51463,-0.29763 -0.77095,-0.70351 -0.77095,-1.21754 z m 26.29875,-0.52761 c 0,-0.0541 0.0271,-0.18937 0.0814,-0.40588 l 7.83213,-25.52781 c 0.16284,-0.56819 0.56188,-1.00785 1.19814,-1.31901 0.63526,-0.31114 1.35896,-0.46672 2.17113,-0.46672 0.81115,0 1.5419,0.15558 2.19122,0.46672 0.64933,0.31116 1.05541,0.75082 1.21724,1.31901 l 7.83313,25.52781 c 0.0543,0.21651 0.0814,0.35181 0.0814,0.40588 0,0.59525 -0.36587,1.10929 -1.09561,1.54221 -0.73075,0.43291 -1.47456,0.64932 -2.23244,0.64932 -1.00113,0 -1.59618,-0.3517 -1.78615,-1.0552 l -1.5419,-5.39776 h -9.29362 l -1.54291,5.39776 c -0.18896,0.7035 -0.78401,1.0552 -1.78514,1.0552 -0.78502,0 -1.53587,-0.20967 -2.25254,-0.62902 -0.71667,-0.41935 -1.07551,-0.94022 -1.07551,-1.56251 z m 7.75171,-8.40104 h 7.06118 l -3.53008,-12.45954 z"
         fill="#000000"
         id="path4"
         style="stroke-width:1.00515" /></g><g
       id="g5"
       transform="matrix(0.33785917,0,0,0.33785917,626.62605,165.45714)"><g
         id="layer3"
         inkscape:label="lettering"
         style="display:inline"
         transform="translate(164.81773,548.35158)"><path
           inkscape:connector-curvature="0"
           id="path1278"
           style="display:inline;fill:#000000;fill-opacity:1;fill-rule:nonzero;stroke:none;stroke-width:1.35272"
           d="m 85.381459,84.642257 h 0.489686 0.601961 c 2.518773,0.46533 4.361183,2.66892 4.236731,5.32702 -0.137977,2.94487 -2.637811,5.331078 -5.581338,5.331078 l -16.20563,0.005 -1.134936,9.322975 h 17.13901 0.845453 c 2.518772,0.46803 4.362534,2.67433 4.238084,5.33243 -0.137978,2.94353 -2.637812,5.33109 -5.582691,5.33109 H 63.842038 c -5.808596,0 -9.97228,-4.20021 -9.314856,-9.42173 l 3.864732,-31.037813 c 0.66554,-5.26616 5.979039,-9.54077 11.841744,-9.54077 h 19.664546 0.768346 c 2.558001,0.42611 4.43964,2.64728 4.315189,5.33243 -0.137977,2.94219 -2.636458,5.33109 -5.582691,5.33109 H 71.353713 l -1.086238,8.6872 z" /><path
           inkscape:connector-curvature="0"
           id="path1282"
           style="display:inline;fill:#000000;fill-opacity:1;fill-rule:nonzero;stroke:none;stroke-width:1.34434"
           d="m 154.80878,105.43516 c 1.90761,-0.0793 3.82464,-0.26753 5.74839,-0.56463 1.92509,-0.29709 2.96157,-0.46514 3.11079,-0.50414 l 2.401,-19.377281 c -0.12234,-0.02952 -1.0943,-0.142501 -2.91453,-0.34146 -1.82158,-0.201652 -3.76146,-0.314568 -5.81696,-0.344144 -2.2679,-0.04164 -4.13921,0.729977 -5.61933,2.316293 -1.47742,1.587668 -2.46014,4.248104 -2.94545,7.981339 -0.51891,3.812538 -0.33877,6.561703 0.54178,8.247513 0.87919,1.68849 2.71152,2.5502 5.49431,2.58651 m 12.93119,-34.42045 c 0.3912,-3.18743 3.23448,-5.722856 6.4582,-5.722856 3.22373,0 5.67848,2.535426 5.57901,5.722856 l -0.10217,0.836174 -4.73207,38.628236 c -0.85097,2.75185 -3.43076,4.81273 -6.33453,4.81273 -2.13077,0 -3.91606,-1.11043 -4.85441,-2.78278 -1.50163,0.28769 -2.63894,0.51891 -2.95081,0.62242 -1.18572,0.37777 -2.62551,0.75553 -4.3207,1.13597 -1.69388,0.37775 -3.33128,0.58345 -4.91357,0.61167 -6.66792,-0.009 -11.07198,-1.72209 -13.21619,-5.13268 -2.14422,-3.41327 -2.74246,-8.45993 -1.79604,-15.145313 0.85903,-6.849409 3.04896,-11.8275 6.5671,-14.931569 3.51812,-3.104089 8.33758,-4.631254 14.45568,-4.581514 1.16687,0.01212 2.48836,0.0968 3.96712,0.256768 1.47744,0.157289 2.77069,0.318613 3.87977,0.475892 l 1.74764,0.256768 z" /><path
           inkscape:connector-curvature="0"
           id="path1286"
           style="display:inline;fill:#000000;fill-opacity:1;fill-rule:nonzero;stroke:none;stroke-width:1.35272"
           d="m 209.84463,80.919137 c 0.25701,-3.34258 3.17484,-6.05344 6.51877,-6.05344 3.32229,0 5.82483,2.67704 5.60434,5.98986 l -3.65912,29.527253 c -0.8184,2.80149 -3.43457,4.90904 -6.3808,4.90904 -2.29422,0 -4.19074,-1.27833 -5.07001,-3.15998 l -0.91308,0.29356 -2.06696,0.65471 c -1.31216,0.40446 -2.85561,0.81164 -4.63174,1.2188 -1.77477,0.40447 -3.38857,0.62361 -4.84275,0.65473 -4.35307,0.005 -7.5996,-0.67908 -9.73826,-2.0575 -2.13866,-1.37708 -3.45486,-3.48733 -3.94454,-6.32534 -0.49104,-2.84071 -0.44099,-6.45249 0.15015,-10.829895 l 1.84376,-14.885378 c 0.38553,-3.31282 3.28847,-5.98986 6.61211,-5.98986 3.34259,0 5.84513,2.71086 5.58812,6.05344 -0.0365,0.48021 -0.12852,0.94827 -0.2692,1.39737 l -1.66384,13.424428 c -0.54111,3.43997 -0.55463,5.954685 -0.0419,7.550895 0.51404,1.59622 2.23064,2.38349 5.15117,2.36456 1.04971,-0.019 2.2577,-0.12985 3.62395,-0.34088 1.36625,-0.20832 2.56476,-0.41665 3.59824,-0.62902 l 1.63139,-0.33818 2.89617,-23.360183 z" /><path
           inkscape:connector-curvature="0"
           id="path1290"
           style="display:inline;fill:#000000;fill-opacity:1;fill-rule:nonzero;stroke:none;stroke-width:1.35272"
           d="m 222.63801,109.23853 c 0.019,-0.23807 0.05,-0.47075 0.0933,-0.7007 l 3.38586,-27.201923 c 0.25702,-3.34258 3.17486,-6.05345 6.51878,-6.05345 2.81638,0 5.03484,1.92358 5.51236,4.52622 0.36658,-0.14474 1.64626,-0.75483 4.10957,-1.86 1.16334,-0.52079 2.46737,-0.99559 3.91343,-1.42712 l 0.38823,-0.11363 0.33412,-0.092 c 0.3233,-0.0609 0.65742,-0.0718 0.99291,-0.0718 2.90429,0 5.07811,2.35509 4.85492,5.25804 -0.18127,2.36998 -1.90464,4.37472 -4.11228,5.03078 -3.34664,0.66013 -6.00746,1.28103 -7.97566,1.90464 -2.26447,0.71559 -3.41293,1.10382 -3.4454,1.15927 l -2.45789,19.702423 c -0.28812,3.31553 -3.1992,5.99257 -6.52284,5.99257 -3.34393,0 -5.84511,-2.71086 -5.58945,-6.05344" /><path
           inkscape:connector-curvature="0"
           id="path1294"
           style="display:inline;fill:#000000;fill-opacity:1;fill-rule:nonzero;stroke:none;stroke-width:1.35272"
           d="m 275.51179,98.182555 -8.27731,0.30706 c -1.60569,0.0581 -2.88672,0.38552 -3.84581,0.97938 -0.95907,0.595185 -1.52858,1.574565 -1.71119,2.938115 -0.17044,1.3446 0.005,2.35914 0.52892,3.04363 0.52215,0.68447 1.41494,1.02535 2.67974,1.02806 1.28915,-0.0135 2.67974,-0.11362 4.17586,-0.29896 1.49341,-0.18531 2.78256,-0.36929 3.86473,-0.5546 l 1.70037,-0.29896 z M 253.86686,80.982667 c 0.17721,-2.30368 2.06966,-4.1975 4.32736,-4.44099 l 0.93743,-0.11634 c 2.16707,-0.27189 4.70208,-0.54108 7.60502,-0.81433 2.90159,-0.2692 5.50964,-0.41393 7.8228,-0.43559 5.10248,-0.0636 8.90092,0.90634 11.39535,2.91378 2.49442,2.00609 3.45485,5.43254 2.88537,10.27799 l -1.75856,14.192773 c -0.21102,1.38789 -0.16368,2.35915 0.13528,2.92053 0.11364,0.21103 0.18938,0.28408 0.43422,0.441 1.67061,0.73993 2.74333,2.45382 2.59047,4.45181 -0.20696,2.67568 -2.54177,4.84545 -5.21881,4.84545 -0.43151,0 -0.73993,0.0555 -1.12952,-0.05 -1.71932,-0.11363 -3.07069,-0.30707 -4.05411,-0.57626 -1.66927,-0.45722 -3.10992,-1.09435 -4.31655,-1.90463 -0.0596,0.0311 -0.82246,0.25566 -2.28745,0.67365 -1.46501,0.41934 -3.27496,0.83733 -5.43525,1.25398 -2.15895,0.41799 -4.30978,0.64524 -6.45114,0.67636 -4.4721,-0.0446 -7.69428,-1.18093 -9.66927,-3.41022 -1.97361,-2.22929 -2.72168,-5.28644 -2.24146,-9.16741 0.56003,-4.246195 2.3064,-7.220825 5.2418,-8.925263 2.93406,-1.70444 6.91918,-2.66622 11.95538,-2.88536 l 9.84512,-0.53838 0.23808,-1.92087 c 0.10552,-1.05242 -0.21644,-1.88705 -0.96855,-2.50795 -0.75076,-0.6182 -1.79371,-0.93473 -3.1302,-0.95097 -2.3267,0.008 -4.84411,0.0609 -7.5482,0.16097 -2.49714,0.0906 -4.67637,0.18262 -6.53908,0.2719 -0.1772,0.0216 -0.35575,0.0324 -0.53837,0.0324 -2.46871,0 -4.31654,-2.00068 -4.12716,-4.46805" /><path
           inkscape:connector-curvature="0"
           id="path1298"
           style="display:inline;fill:#000000;fill-opacity:1;fill-rule:nonzero;stroke:none;stroke-width:1.35272"
           d="m 318.11339,109.23841 0.12715,-0.86168 c -0.0609,0.28001 -0.10416,0.56814 -0.12715,0.86168 m 0,0 c 0.0231,-0.29354 0.0663,-0.58167 0.12715,-0.86168 l 1.69362,-13.951993 c 0.44098,-2.95164 0.35171,-5.27968 -0.26648,-6.98006 -0.61956,-1.70443 -2.24688,-2.57694 -4.88335,-2.61074 -1.04836,0.0163 -2.25769,0.12985 -3.62258,0.33818 -1.3649,0.20831 -2.56476,0.42069 -3.5996,0.629 l -1.63138,0.33818 -2.80421,23.099113 c -0.25702,3.34258 -3.17484,6.05344 -6.51742,6.05344 -3.34393,0 -5.84647,-2.71086 -5.58946,-6.05344 2.42409,-19.559023 3.16943,-25.976343 3.36559,-27.628033 0.27189,-3.61717 3.19107,-6.32804 6.53365,-6.32804 2.16976,0 3.98242,1.139 4.92121,2.85156 l 1.11735,-0.27462 c 0.0636,-0.0324 0.7467,-0.25701 2.04938,-0.67365 1.30131,-0.4207 2.83936,-0.83733 4.61549,-1.25533 1.77342,-0.42069 3.4021,-0.64524 4.88469,-0.67636 6.19953,0.0216 10.23065,1.66385 12.0947,4.92527 1.86269,3.26277 2.34562,8.00947 1.4447,14.24553 l -1.82483,14.813673 c -0.25566,3.34258 -3.17618,6.05344 -6.51742,6.05344 -3.34527,0 -5.84782,-2.71086 -5.5908,-6.05344" /><path
           d="m 408.5385,65.291857 h 32.23127 c 2.75584,0.0501 4.84343,2.30311 4.68483,5.07252 -0.15861,2.80195 -2.55932,5.07251 -5.36262,5.07251 h -10.50156 l -4.32425,34.447623 c -0.38498,3.02427 -3.04053,5.40734 -6.11902,5.40734 -3.21676,0 -5.67575,-2.60811 -5.4941,-5.82486 l 0.0488,-0.54222 4.22122,-33.487883 h -10.0244 c -2.80196,0 -4.92476,-2.27056 -4.76616,-5.07251 0.1586,-2.8006 2.5593,-5.07252 5.36397,-5.07252 z"
           style="display:inline;fill:#000000;fill-opacity:1;fill-rule:nonzero;stroke:none;stroke-width:1.35556"
           id="path1007"
           inkscape:connector-curvature="0" /><path
           inkscape:connector-curvature="0"
           id="path1306"
           style="display:inline;fill:#000000;fill-opacity:1;fill-rule:nonzero;stroke:none;stroke-width:1.35272"
           d="m 368.14835,76.366167 c 2.14947,0.33548 3.66452,2.21712 3.49002,4.48293 -0.19208,2.50795 -2.37943,4.53704 -4.88468,4.53704 l -3.78086,-0.2435 c -1.62192,-0.0974 -3.04094,-0.15014 -4.25296,-0.15827 -4.22321,-0.0446 -7.1194,0.67907 -8.68315,2.17925 -1.56645,1.49881 -2.51471,4.04869 -2.84748,7.64694 -0.61008,4.036528 -0.30977,6.842073 0.90227,8.413933 1.21069,1.57322 3.93778,2.32263 8.17992,2.25365 1.21204,-0.004 3.57255,-0.20021 5.20528,-0.30031 l 2.29693,-0.1488 0.3747,-0.023 c 2.59182,0 4.45317,2.01556 4.26244,4.50186 -0.16775,2.17925 -1.85865,4.01083 -3.9486,4.42476 l -0.35443,0.0514 c -1.80182,0.26378 -4.65335,0.6466 -6.81501,0.89008 -2.30639,0.25838 -4.34765,0.39636 -6.12785,0.41665 -6.6838,0.0487 -11.30335,-1.56104 -13.8573,-4.83193 -2.55393,-3.26818 -3.35746,-8.48293 -2.4119,-15.648303 0.79134,-6.76091 2.9016,-11.73083 6.33346,-14.91244 3.43321,-3.18024 8.49238,-4.75481 15.17756,-4.72371 1.82888,0.019 3.84037,0.15827 6.03449,0.418 2.19277,0.25837 4.0947,0.51538 5.70715,0.77376" /><path
           inkscape:connector-curvature="0"
           id="path1310"
           style="display:inline;fill:#000000;fill-opacity:1;fill-rule:nonzero;stroke:none;stroke-width:1.35272"
           d="m 388.88966,105.8637 c 2.54447,-0.0109 4.99155,0.0581 7.55361,-0.0528 l 4.29895,-0.10823 c 2.18736,0.27732 3.84579,2.0548 3.67401,4.28814 -0.17721,2.30639 -2.97871,4.49105 -5.27969,4.5181 -1.55293,0.23402 -2.58235,0.20562 -4.57627,0.4437 -2.90564,0.34359 -5.85458,0.31111 -8.73993,0.33818 -6.79204,0.0474 -11.55227,-1.48529 -14.2753,-4.60333 -2.72438,-3.11397 -3.64018,-8.10011 -2.74739,-14.955705 0.85493,-6.832598 3.17079,-11.968898 6.9503,-15.400768 3.77815,-3.43455 8.97396,-5.15522 15.58608,-5.15657 6.64187,-0.005 11.41292,1.42306 14.31452,4.28407 2.9043,2.86237 3.99188,7.18702 3.26412,12.97534 l -0.6777,2.718968 c -0.84682,3.11802 -2.90296,4.48563 -5.77885,4.48563 h -21.93847 c -0.25701,2.175175 0.26784,3.760565 1.57051,4.753465 1.30673,0.9956 3.57254,1.48529 6.8015,1.47176 m -7.48462,-14.119713 h 15.66184 c 0.36658,-2.69464 0.0203,-4.61821 -1.0389,-5.76938 -1.05918,-1.15252 -2.99898,-1.71254 -5.82347,-1.68008 -2.85696,-0.008 -4.95909,0.60196 -6.30369,1.82483 -1.34597,1.22151 -2.17789,3.09639 -2.49578,5.62463" /><path
           inkscape:connector-curvature="0"
           id="path1314"
           style="display:inline;fill:#000000;fill-opacity:1;fill-rule:evenodd;stroke:none;stroke-width:1.35272"
           d="m 502.90412,75.175477 c -7.76599,0.0946 -13.4312,1.95469 -16.99563,5.57728 -3.56442,3.62259 -5.66114,8.43829 -6.28881,14.441678 -0.86168,6.007445 0.0406,10.835315 2.7041,14.480895 2.66486,3.6456 7.8688,5.51642 15.60908,5.61652 7.76462,-0.10014 13.43254,-1.97092 17.00103,-5.61652 3.56713,-3.64558 5.6652,-8.47345 6.29153,-14.480895 0.86168,-6.003388 -0.0406,-10.819088 -2.70817,-14.441678 -2.66756,-3.62259 -7.87149,-5.4826 -15.61313,-5.57728 m -3.82145,30.843443 c -3.28441,-0.0109 -5.42713,-0.93338 -6.42543,-2.76361 -0.99831,-1.83429 -1.24721,-4.520795 -0.744,-8.060875 0.37335,-3.534658 1.28508,-6.211708 2.73521,-8.021648 1.45146,-1.80995 3.82009,-2.71898 7.10586,-2.72439 3.28576,0.005 5.42847,0.91444 6.42949,2.72439 1.00237,1.80994 1.25127,4.48699 0.74941,8.021648 -0.37471,3.54008 -1.2878,6.226585 -2.74062,8.060875 -1.45283,1.83023 -3.82415,2.75279 -7.10992,2.76361" /><path
           inkscape:connector-curvature="0"
           id="path1318"
           style="display:inline;fill:#000000;fill-opacity:1;fill-rule:nonzero;stroke:none;stroke-width:1.35272"
           d="m 446.63798,110.6209 c -0.5925,3.41292 -2.9557,4.67095 -6.29828,4.67095 -3.3223,0 -5.83431,-2.67569 -5.61246,-5.98986 l 3.49003,-28.261093 c 0.37471,-3.23166 3.24788,-5.81536 6.51066,-5.81536 2.81502,0 5.03484,1.92086 5.511,4.5235 0.3463,-0.14339 1.62463,-0.75346 4.08928,-1.85729 1.16199,-0.5208 2.46602,-0.99695 3.91073,-1.42712 l 0.38822,-0.11092 0.33549,-0.0947 c 0.3233,-0.0609 0.65742,-0.0718 0.99289,-0.0718 2.90429,0 5.07948,2.35374 4.85493,5.25803 -0.18127,2.36997 -1.90599,4.37471 -4.11093,5.02944 -3.34664,0.66148 -6.0088,1.28239 -7.97702,1.90598 -2.26445,0.71559 -3.41292,1.10382 -3.44673,1.15929 z" /><path
           style="display:inline;fill:#000000;fill-opacity:1;fill-rule:nonzero;stroke:none;stroke-width:1.35272"
           d="m 474.41488,61.403057 c -3.39128,0 -6.35275,2.74758 -6.61112,6.1375 -0.26107,3.38993 2.27726,6.13556 5.66583,6.13556 3.39129,0 6.35141,-2.74563 6.61112,-6.13556 0.25973,-3.38992 -2.27591,-6.1375 -5.66583,-6.1375 z m -1.38187,13.90829 c -3.34393,0 -6.26385,2.71232 -6.51951,6.0576 l -0.0137,0.17346 -3.35038,27.226023 -0.0487,0.47166 c -0.25703,3.34123 2.24529,6.05176 5.58787,6.05176 3.34394,0 6.26142,-2.7101 6.52926,-6.1609 l 3.44004,-27.958853 c 0.14744,-3.25466 -2.34455,-5.86075 -5.62491,-5.86075 z"
           id="path1322"
           inkscape:connector-curvature="0" /><path
           inkscape:connector-curvature="0"
           id="path1330"
           style="display:inline;fill:#000000;fill-opacity:1;fill-rule:nonzero;stroke:none;stroke-width:1.35272"
           d="m 120.8469,109.23841 0.12715,-0.86168 c -0.0622,0.28001 -0.10416,0.56814 -0.12715,0.86168 m 0,0 c 0.023,-0.29354 0.0649,-0.58167 0.12715,-0.86168 l 1.69361,-13.951993 c 0.44099,-2.95164 0.35171,-5.27968 -0.26784,-6.98006 -0.61819,-1.70443 -2.24552,-2.57694 -4.88198,-2.61074 -1.04971,0.0163 -2.25769,0.12985 -3.62394,0.33818 -1.3649,0.20831 -2.56477,0.42069 -3.59825,0.629 l -1.63138,0.33818 -2.8042,23.099113 c -0.25702,3.34258 -3.1762,6.05344 -6.518773,6.05344 -3.343933,0 -5.846471,-2.71086 -5.589454,-6.05344 2.424081,-19.559023 3.170784,-25.976343 3.36693,-27.628033 0.271898,-3.61717 3.189717,-6.32804 6.533647,-6.32804 2.16842,0 3.98107,1.139 4.91986,2.85156 l 1.11735,-0.27462 c 0.0649,-0.0324 0.74806,-0.25701 2.04938,-0.67365 1.30267,-0.4207 2.84072,-0.83733 4.61549,-1.25533 1.77477,-0.42069 3.40345,-0.64524 4.88469,-0.67636 6.20088,0.0216 10.232,1.66385 12.0947,4.92527 1.86405,3.26277 2.34562,8.00947 1.44471,14.24553 l -1.82483,14.813673 c -0.25566,3.34258 -3.17484,6.05344 -6.51742,6.05344 -3.34393,0 -5.84647,-2.71086 -5.58945,-6.05344" /></g><g
         id="layer1"
         inkscape:label="coresPrimárias"
         transform="translate(164.81773,551.14435)"
         style="display:inline"><path
           inkscape:connector-curvature="0"
           id="path1334"
           style="display:inline;fill:#fedb00;fill-opacity:1;fill-rule:nonzero;stroke:none;stroke-width:1.35417"
           d="m 243.05071,-51.177178 c 0.418,-3.491934 3.58081,-6.323708 7.0683,-6.323708 h 100.63908 c 3.48478,0 5.97254,2.831774 5.55319,6.323708 l -11.64614,97.351206 c -0.41666,3.49329 -3.58081,6.32507 -7.0683,6.32507 H 236.95776 c -3.48477,0 -5.97254,-2.83178 -5.55453,-6.32507 z" /><path
           inkscape:connector-curvature="0"
           id="path1342"
           style="display:inline;fill:#f9423a;fill-opacity:1;fill-rule:nonzero;stroke:none;stroke-width:1.35417"
           d="m 368.0493,-51.17718 c 0.41935,-3.491934 3.58215,-6.323708 7.06825,-6.323708 h 100.6384 c 3.48611,0 5.97251,2.831774 5.55586,6.323708 l -11.6474,97.351208 c -0.41801,3.49329 -3.58215,6.32507 -7.0669,6.32507 H 361.95775 c -3.48611,0 -5.97251,-2.83178 -5.5545,-6.32507 z" /><path
           inkscape:connector-curvature="0"
           id="path1338"
           style="display:inline;fill:#41b6e6;fill-opacity:1;fill-rule:nonzero;stroke:none;stroke-width:1.35417"
           d="m 118.0504,-51.177175 c 0.41801,-3.491934 3.58215,-6.323708 7.0669,-6.323708 h 100.63975 c 3.48609,0 5.9725,2.831774 5.55449,6.323708 L 219.6655,46.174038 c -0.41801,3.49329 -3.58351,6.32506 -7.06824,6.32506 H 111.95885 c -3.48745,0 -5.9725,-2.83177 -5.55585,-6.32506 z" /></g><g
         id="layer4"
         inkscape:label="coresSecundárias"
         style="display:inline"
         transform="translate(164.81773,548.35158)"><path
           style="display:inline;fill:#0077c8;fill-opacity:1;stroke:none;stroke-width:0.0680315;stroke-miterlimit:2;stroke-dasharray:none;stroke-opacity:1"
           d="m 197.11386,-26.763263 -0.008,0.0078 c 1.55459,1.724126 2.50977,3.999912 2.50977,6.503906 0,2.694857 -1.07925,5.159043 -2.84961,6.919922 -0.18436,0.225024 -0.9892,0.956326 -2.41797,2.195312 -1.61041,1.3962306 -3.84261,2.7906706 -6.69336,4.1855466 -2.85211,1.398943 -6.1521,2.150126 -9.9043,2.25586 -2.93751,-0.08947 -6.28099,-0.712087 -10.0332,-1.871094 -3.7522,-1.160364 -7.37706,-2.320106 -10.87305,-3.4804686 -3.49736,-1.159007 -6.32779,-1.783419 -8.49804,-1.876953 -3.0202,0.199268 -5.9233,0.821289 -8.70898,1.869141 -1.23492,0.5584916 -2.60516,0.8730456 -4.04883,0.8730466 -2.67571,0 -5.0982,-1.0750076 -6.86719,-2.8124996 l 20.48437,20.4843734 c 0.64519,-0.31931 1.31427,-0.639438 2.0293,-0.958984 3.12593,-1.394876 6.70607,-2.146219 10.74023,-2.251953 2.8494,0.08675 6.01859,0.710731 9.50781,1.871094 l 10.38672,3.4785156 c 3.43365,1.160363 6.49432,1.784177 9.17969,1.875 2.22448,-0.07998 4.62126,-0.632638 7.19141,-1.660156 1.42335,-0.576114 2.66772,-0.8125 3.96093,-0.8125 5.37347,0 9.72852,4.355816 9.72852,9.726563 0,2.696218 -1.07925,5.160997 -2.84961,6.921875 -0.18301,0.225023 -0.9892,0.954374 -2.41797,2.193359 -1.61042,1.394876 -3.84126,2.790671 -6.69336,4.185547 -2.85211,1.397587 -6.15209,2.150125 -9.90429,2.255859 -2.93751,-0.08947 -6.28099,-0.710731 -10.03321,-1.871093 -3.75219,-1.159009 -7.37569,-2.319508 -10.87304,-3.478516 -3.49601,-1.160364 -6.32975,-1.784774 -8.5,-1.876953 -3.01885,0.197913 -5.92135,0.819933 -8.70704,1.86914 -1.23356,0.558492 -2.60514,0.869141 -4.04882,0.869141 -2.67571,0 -5.0982,-1.073218 -6.86719,-2.810547 l 27.27539,27.275386 h 44.28516 c 3.48473,0 6.65034,-2.83091 7.06836,-6.32422 L 225.3461,1.4691456 Z m -68.65038,14.5 -0.006,0.0059 0.14062,0.140625 c -0.0465,-0.04735 -0.0892,-0.0982 -0.13476,-0.146485 z m 12.3125,40.007813 -0.006,0.0059 0.14258,0.142578 c -0.0472,-0.048 -0.0905,-0.09948 -0.13672,-0.148437 z"
           id="rect1103"
           inkscape:connector-curvature="0" /><path
           style="display:inline;fill:#af272f;fill-opacity:1;stroke:none;stroke-width:0.0680315;stroke-miterlimit:2;stroke-dasharray:none;stroke-opacity:1"
           d="m 420.02793,-31.353107 -0.008,0.0078 c 1.75411,1.857611 2.82227,4.341187 2.82227,7.080078 0,5.744878 -4.65941,10.402344 -10.4043,10.402344 l -0.35937,-0.0059 -24.31055,-0.470704 c -2.80775,0 -5.31086,-1.078015 -7.14062,-2.820312 l 31.67187,31.671875 5.46875,-0.06445 c 5.96177,-0.0013 10.61914,4.655507 10.61914,10.40039 0,5.746237 -4.65806,10.402344 -10.4043,10.402344 l -0.35937,-0.0059 -24.37695,-0.470703 c -2.87109,0 -5.42808,-1.120527 -7.26758,-2.933594 l 23.45117,23.451166 h 53.16797 c 3.48475,0 6.6484,-2.83091 7.06641,-6.32422 l 5.16601,-43.1738216 -11.87695,-11.8769528 -0.006,0.0059 c 1.39884,1.765832 2.23047,3.985069 2.23047,6.40234397 0,5.74488183 -4.65748,10.40039143 -10.40235,10.40039143 l -0.35937,-0.0039 -24.29492,-0.470703 c -5.74352,0 -10.23047,-4.4861176 -10.23047,-10.01953143 0,-5.41141397 4.29753,-9.82432897 9.66015,-10.01953097 h 0.36133 l 11.54524,-0.134722 z m -34.04883,63.19336 c -0.0302,-0.02979 -0.0561,-0.06359 -0.0859,-0.09375 l -0.004,0.0039 z m -5.82813,-49.492188 -0.008,0.0078 0.19727,0.197265 c -0.0649,-0.06698 -0.12651,-0.136343 -0.18946,-0.205078 z"
           id="rect1117"
           inkscape:connector-curvature="0" /><path
           style="display:inline;fill:#cc8a00;fill-opacity:1;stroke:none;stroke-width:0.0680315;stroke-miterlimit:2;stroke-dasharray:none;stroke-opacity:1"
           d="m 322.78965,-24.171466 -0.006,0.0059 c 5.59826,6.309521 8.46622,14.9376556 7.28515,24.45898457 C 327.66809,19.622413 309.5114,35.291466 289.51411,35.291466 c -9.30936,0 -17.37465,-3.398559 -23.09765,-8.978516 l 28.97851,28.978507 h 42.20118 c 3.48749,0 6.6517,-2.83091 7.06836,-6.32422 l 5.47851,-45.7851464 z m -27.16993,10.275391 c -8.11034,0 -15.47337,6.3515776 -16.44531,14.18945257 -0.97329,7.83380683 4.81153,14.18554743 12.92188,14.18554743 8.11169,0 15.47007,-6.3517406 16.44336,-14.18554743 0.97329,-7.83787497 -4.81094,-14.18945257 -12.91993,-14.18945257 z m -29.88867,39.507812 -0.008,0.0078 0.37891,0.378906 c -0.126,-0.126554 -0.24748,-0.258017 -0.3711,-0.386719 z"
           id="rect1121"
           inkscape:connector-curvature="0" /></g><g
         id="layer5"
         inkscape:label="Icons"
         style="display:inline"
         transform="translate(164.81773,548.35158)"><path
           inkscape:connector-curvature="0"
           id="path1354"
           style="display:inline;fill:#ffffff;fill-opacity:1;fill-rule:nonzero;stroke:none;stroke-width:1.35556"
           d="m 289.51363,35.290517 c -19.99729,0 -34.26732,-15.66897 -31.86797,-34.99796443 2.39935,-19.33170557 20.5585,-34.99931557 40.55578,-34.99931557 19.99593,0 34.26596,15.66761 31.86797,34.99931557 C 327.6687,19.621547 309.51092,35.290517 289.51363,35.290517 m 2.58235,-20.810626 c 8.11169,0 15.47106,-6.3535316 16.44435,-14.18733843 0.9733,-7.83787497 -4.81225,-14.18869357 -12.92124,-14.18869357 -8.11034,0 -15.47242,6.3508186 -16.44436,14.18869357 -0.97329,7.83380683 4.8109,14.18733843 12.92125,14.18733843" /><path
           inkscape:connector-curvature="0"
           id="path1362"
           style="display:inline;fill:#ffffff;fill-opacity:1;fill-rule:nonzero;stroke:none;stroke-width:1.35556"
           d="m 383.01698,24.755775 c 0,-5.408702 4.29712,-9.825131 9.65974,-10.021688 h 0.36057 l 24.73093,-0.286025 c 5.96177,-0.0013 10.61949,4.655009 10.61949,10.399892 0,5.746237 -4.65772,10.402601 -10.40396,10.402601 l -0.35923,-0.0054 -24.37846,-0.470381 c -5.74218,0 -10.22909,-4.485563 -10.22909,-10.018977 M 419.89103,0.23088957 c 0,-5.41141397 4.29713,-9.82513097 9.65975,-10.02033297 h 0.36194 l 24.64551,-0.2860226 c 5.96177,-0.0027 10.6195,4.6536516 10.6195,10.39988957 0,5.74488183 -4.65773,10.40124643 -10.4026,10.40124643 l -0.35923,-0.0054 -24.29443,-0.470381 c -5.74352,0 -10.23044,-4.4855636 -10.23044,-10.01897743 M 377.53778,-24.359033 c 0,-5.410058 4.29714,-9.825132 9.65976,-10.021689 l 0.36192,0.0013 24.66314,-0.28738 c 5.96042,-0.0013 10.61949,4.656364 10.61949,10.401247 0,5.744878 -4.65907,10.402598 -10.40396,10.402598 l -0.35922,-0.0054 -24.31069,-0.471737 c -5.74352,0 -10.23045,-4.485563 -10.23045,-10.018972" /><path
           d="m 138.09896,21.026591 c 0,-2.975465 1.33659,-5.652704 3.42958,-7.450183 l 0.55307,-0.439203 1.77443,-1.416564 c 1.79341,-1.396232 4.2524,-2.7911076 7.37969,-4.1886956 3.12593,-1.394876 6.70462,-2.147214 10.73878,-2.252948 2.8494,0.08675 6.02006,0.711671 9.50928,1.872034 l 10.38634,3.4783796 c 3.43365,1.160363 6.49452,1.783923 9.17989,1.874746 2.22448,-0.07998 4.62112,-0.633049 7.19127,-1.660567 1.42335,-0.576114 2.66639,-0.811982 3.9596,-0.811982 5.37347,0 9.7289,4.355427 9.7289,9.726174 0,2.696218 -1.07904,5.160635 -2.8494,6.921513 -0.18301,0.225023 -0.98956,0.955673 -2.41833,2.194658 -1.61042,1.394876 -3.84032,2.791108 -6.69242,4.185984 -2.85211,1.397587 -6.15291,2.149925 -9.90511,2.255659 -2.93751,-0.08947 -6.28033,-0.711672 -10.03255,-1.872034 -3.75219,-1.159008 -7.37562,-2.319371 -10.87297,-3.478379 -3.49601,-1.160364 -6.32914,-1.785278 -8.49939,-1.877457 -3.01885,0.197913 -5.92247,0.820117 -8.70815,1.869324 -1.23357,0.558492 -2.60539,0.870272 -4.04906,0.870272 -5.41413,0 -9.80345,-4.386607 -9.80345,-9.800731 m -12.31395,-40.010842 c 0,-2.97546 1.33523,-5.649989 3.42958,-7.447467 l 0.55171,-0.441914 1.77444,-1.416565 c 1.79341,-1.394876 4.25376,-2.789752 7.37969,-4.187339 3.12729,-1.396232 6.70598,-2.14857 10.73878,-2.254304 2.85075,0.08947 6.02006,0.713028 9.50928,1.872035 l 10.38634,3.478378 c 3.435,1.160363 6.49451,1.785279 9.18124,1.876101 2.22312,-0.07727 4.61976,-0.631692 7.19128,-1.660566 1.42062,-0.574759 2.66503,-0.813339 3.96096,-0.813339 5.37074,0 9.72753,4.355429 9.72753,9.727532 0,2.694857 -1.07904,5.159273 -2.8494,6.920152 -0.18436,0.225024 -0.98956,0.955673 -2.41833,2.194659 -1.61041,1.3962306 -3.84167,2.7911066 -6.69242,4.1859826 -2.85211,1.398943 -6.15292,2.149926 -9.90512,2.25566 -2.93751,-0.08947 -6.28168,-0.711672 -10.03389,-1.870679 -3.7522,-1.160364 -7.37563,-2.319372 -10.87162,-3.4797346 -3.49736,-1.159007 -6.32914,-1.783923 -8.49939,-1.877457 -3.0202,0.199268 -5.92246,0.821472 -8.70815,1.869324 -1.23491,0.5584916 -2.60539,0.8716266 -4.04907,0.8716266 -5.41412,0 -9.80344,-4.3866056 -9.80344,-9.8020856"
           style="display:inline;fill:#ffffff;fill-opacity:1;fill-rule:nonzero;stroke:none;stroke-width:1.35556"
           id="path1023"
           inkscape:connector-curvature="0" /></g></g></g></svg>
